# xmcd
#
# Track frame offsets: 
#        150
#        17942
#        36141
#        56897
#        73965
#        96294
#        126356
#        143770
#        159598
#
# Disc length: 2415 seconds
#
# Revision: 0
# Processed by: cddbd v1.5.2PL0 Copyright (c) Steve Scherf et al.
# Submitted via: ExactAudioCopyFreeDBPlugin 1.0
#
DISCID=86096d09
DTITLE=Andy J. Forest - Other Rooms
DYEAR=2012
DGENRE=Blues
TTITLE0=Franklin Avenue
TTITLE1=Home
TTITLE2=God Will Understand
TTITLE3=Watch Your Back
TTITLE4=She
TTITLE5=That Was Our Good Bye
TTITLE6=T'es La Femme Qu'il Me Faut
TTITLE7=Dull Knife
TTITLE8=Hangover
EXTD=
EXTT0=
EXTT1=
EXTT2=
EXTT3=
EXTT4=
EXTT5=
EXTT6=
EXTT7=
EXTT8=
PLAYORDER=
